<?xml version="1.0" standalone="no"?>
<!DOCTYPE svg PUBLIC "-//W3C//DTD SVG 20010904//EN"
 "http://www.w3.org/TR/2001/REC-SVG-20010904/DTD/svg10.dtd">
<svg version="1.0" xmlns="http://www.w3.org/2000/svg"
 width="512.000000pt" height="512.000000pt" viewBox="0 0 512.000000 512.000000"
 preserveAspectRatio="xMidYMid meet">
<metadata>
Created by potrace 1.14, written by Peter Selinger 2001-2017
</metadata>
<g transform="translate(0.000000,512.000000) scale(0.100000,-0.100000)"
fill="#000000" stroke="none">
<path d="M700 5113 c-227 -40 -416 -162 -537 -346 -55 -84 -78 -134 -105 -234
l-21 -78 -2 -1729 c-2 -1848 -3 -1801 46 -1936 94 -258 323 -449 599 -500 48
-9 341 -13 1128 -13 584 0 1062 -3 1062 -7 0 -3 -25 -30 -56 -59 -65 -62 -85
-102 -73 -146 10 -35 39 -56 86 -62 30 -4 41 3 141 101 l107 105 115 32 115
33 400 2 c220 0 433 4 473 8 205 20 392 124 535 298 20 25 37 48 37 52 0 5 9
19 20 33 32 41 80 180 93 269 8 50 12 200 12 380 l0 298 87 87 c93 94 117 130
123 186 6 66 -20 112 -118 211 l-92 92 -1 1128 -1 1127 -22 83 c-73 278 -274
483 -556 568 -57 17 -151 18 -1815 20 -965 1 -1766 -1 -1780 -3z"/>
</g>
</svg>
